<svg xmlns="http://www.w3.org/2000/svg" width="512" height="508" viewBox="0 0 512 508" version="1.1"><path d="M 188.500 81.155 C 150.616 98.386, 121.328 112.283, 119.750 113.775 C 115.852 117.460, 115.881 123.716, 119.816 128.121 C 124.994 133.915, 124.337 134.141, 192.573 103.126 C 226.633 87.645, 255.196 74.984, 256.048 74.990 C 258.675 75.007, 413.500 145.762, 413.500 146.945 C 413.500 147.557, 405.400 151.570, 395.500 155.862 C 385.600 160.155, 350.153 175.703, 316.728 190.412 L 255.956 217.156 228.228 204.928 C 200.183 192.561, 159.382 174.630, 102.133 149.514 C 71.309 135.991, 70.699 135.774, 66.836 136.931 C 64.215 137.716, 62.252 139.175, 60.948 141.304 C 59.034 144.432, 58.998 146.847, 59.246 254.145 C 59.496 362.193, 59.529 363.823, 61.500 366.032 C 62.600 367.265, 66.200 369.498, 69.500 370.994 C 72.800 372.491, 93.500 382.063, 115.500 392.267 C 137.500 402.471, 170.125 417.556, 188 425.790 C 205.875 434.024, 228.462 444.464, 238.194 448.991 L 255.887 457.221 310.194 432.167 C 340.062 418.387, 378.225 400.739, 395 392.949 C 411.775 385.159, 430.450 376.547, 436.500 373.811 C 442.550 371.076, 448.625 367.739, 450 366.396 L 452.500 363.955 452.765 254.727 C 452.959 175.099, 452.724 144.757, 451.898 142.759 C 451.275 141.251, 449.355 139.155, 447.632 138.101 C 445.910 137.047, 414.575 122.614, 378 106.026 C 341.425 89.439, 307.225 73.911, 302 71.518 C 264.691 54.434, 256.951 51.008, 255.800 51.067 C 255.085 51.104, 224.800 64.643, 188.500 81.155 M 80.856 164.933 C 80.660 165.519, 80.617 207.965, 80.760 259.258 L 81.020 352.518 113.260 367.432 C 193.981 404.775, 244.364 428, 244.651 428 C 244.822 428, 245.084 394.213, 245.231 352.918 L 245.500 277.835 248.766 274.918 C 254.370 269.911, 262.051 271.330, 265.506 278.011 C 266.792 280.498, 267 291.154, 267 354.450 C 267 394.903, 267.167 428, 267.372 428 C 267.577 428, 296.039 414.906, 330.622 398.903 C 365.205 382.900, 401.938 365.957, 412.250 361.253 L 431 352.699 431 258.243 C 431 183.074, 430.745 163.890, 429.750 164.293 C 428.453 164.819, 322.323 211.530, 292.584 224.663 C 259.648 239.209, 257.300 240.112, 254.303 239.385 C 251.838 238.788, 226.335 227.764, 168.500 202.295 C 159.150 198.178, 144.300 191.639, 135.500 187.764 C 126.700 183.890, 111.400 177.136, 101.500 172.756 C 91.600 168.376, 82.985 164.584, 82.356 164.330 C 81.726 164.075, 81.051 164.347, 80.856 164.933" stroke="none" fill="#1e1e1b" fill-rule="evenodd"/><path d="M 248.367 31.415 C 245.544 32.100, 241.719 33.376, 239.867 34.250 C 228.306 39.705, 172.199 65, 171.660 65 C 171.428 65, 165.543 67.700, 158.582 71 C 151.620 74.300, 145.720 77, 145.470 77 C 145.219 77, 132.749 82.558, 117.757 89.352 C 102.766 96.146, 83.525 104.777, 75 108.532 C 57.688 116.157, 50.819 120.244, 45.594 126.028 C 37.905 134.538, 38.500 123.892, 38.500 253 L 38.500 368.500 40.829 373.228 C 43.971 379.609, 51.646 386.270, 60.872 390.625 C 65.067 392.605, 74.575 397.139, 82 400.701 C 89.425 404.262, 96.400 407.569, 97.500 408.048 C 98.600 408.527, 104.814 411.413, 111.308 414.460 C 117.803 417.507, 123.319 420, 123.567 420 C 123.815 420, 129.301 422.518, 135.759 425.595 C 142.216 428.672, 151.325 432.889, 156 434.966 C 160.675 437.043, 168.428 440.600, 173.230 442.871 C 178.031 445.142, 182.186 447, 182.463 447 C 182.740 447, 189.161 449.964, 196.733 453.586 C 204.305 457.208, 212.525 460.989, 215 461.989 C 217.475 462.988, 225.125 466.495, 232 469.782 C 247.245 477.070, 253.685 478.622, 261.750 476.950 C 264.913 476.294, 273.125 473.068, 280 469.782 C 286.875 466.495, 294.525 462.988, 297 461.989 C 299.475 460.989, 307.695 457.208, 315.267 453.586 C 322.839 449.964, 329.260 447, 329.537 447 C 329.814 447, 333.969 445.142, 338.770 442.871 C 343.572 440.600, 351.325 437.050, 356 434.982 C 360.675 432.914, 369.794 428.697, 376.264 425.611 C 382.734 422.525, 388.220 420, 388.454 420 C 388.689 420, 393.520 417.805, 399.190 415.122 C 404.861 412.440, 411.975 409.117, 415 407.737 C 418.025 406.358, 425.675 402.759, 432 399.739 C 438.325 396.719, 446.933 392.622, 451.128 390.636 C 460.362 386.264, 468.032 379.603, 471.171 373.228 L 473.500 368.500 473.500 253 L 473.500 137.500 471.161 132.796 C 467.402 125.234, 461.507 120.701, 445.270 112.888 C 437.146 108.980, 428.476 104.899, 426.002 103.820 C 423.528 102.741, 420.153 101.242, 418.502 100.489 C 392.294 88.532, 377.917 82.023, 370.660 78.828 C 365.799 76.688, 357.924 73.105, 353.160 70.867 C 348.397 68.629, 340.900 65.219, 336.500 63.289 C 319.672 55.909, 280.127 38.049, 273.500 34.836 C 269.165 32.734, 258.722 29.987, 255.500 30.100 C 254.400 30.138, 251.190 30.730, 248.367 31.415 M 188.500 81.155 C 150.616 98.386, 121.328 112.283, 119.750 113.775 C 115.852 117.460, 115.881 123.716, 119.816 128.121 C 124.994 133.915, 124.337 134.141, 192.573 103.126 C 226.633 87.645, 255.196 74.984, 256.048 74.990 C 258.675 75.007, 413.500 145.762, 413.500 146.945 C 413.500 147.557, 405.400 151.570, 395.500 155.862 C 385.600 160.155, 350.153 175.703, 316.728 190.412 L 255.956 217.156 228.228 204.928 C 200.183 192.561, 159.382 174.630, 102.133 149.514 C 71.309 135.991, 70.699 135.774, 66.836 136.931 C 64.215 137.716, 62.252 139.175, 60.948 141.304 C 59.034 144.432, 58.998 146.847, 59.246 254.145 C 59.496 362.193, 59.529 363.823, 61.500 366.032 C 62.600 367.265, 66.200 369.498, 69.500 370.994 C 72.800 372.491, 93.500 382.063, 115.500 392.267 C 137.500 402.471, 170.125 417.556, 188 425.790 C 205.875 434.024, 228.462 444.464, 238.194 448.991 L 255.887 457.221 310.194 432.167 C 340.062 418.387, 378.225 400.739, 395 392.949 C 411.775 385.159, 430.450 376.547, 436.500 373.811 C 442.550 371.076, 448.625 367.739, 450 366.396 L 452.500 363.955 452.765 254.727 C 452.959 175.099, 452.724 144.757, 451.898 142.759 C 451.275 141.251, 449.355 139.155, 447.632 138.101 C 445.910 137.047, 414.575 122.614, 378 106.026 C 341.425 89.439, 307.225 73.911, 302 71.518 C 264.691 54.434, 256.951 51.008, 255.800 51.067 C 255.085 51.104, 224.800 64.643, 188.500 81.155 M 80.856 164.933 C 80.660 165.519, 80.617 207.965, 80.760 259.258 L 81.020 352.518 113.260 367.432 C 193.981 404.775, 244.364 428, 244.651 428 C 244.822 428, 245.084 394.213, 245.231 352.918 L 245.500 277.835 248.766 274.918 C 254.370 269.911, 262.051 271.330, 265.506 278.011 C 266.792 280.498, 267 291.154, 267 354.450 C 267 394.903, 267.167 428, 267.372 428 C 267.577 428, 296.039 414.906, 330.622 398.903 C 365.205 382.900, 401.938 365.957, 412.250 361.253 L 431 352.699 431 258.243 C 431 183.074, 430.745 163.890, 429.750 164.293 C 428.453 164.819, 322.323 211.530, 292.584 224.663 C 259.648 239.209, 257.300 240.112, 254.303 239.385 C 251.838 238.788, 226.335 227.764, 168.500 202.295 C 159.150 198.178, 144.300 191.639, 135.500 187.764 C 126.700 183.890, 111.400 177.136, 101.500 172.756 C 91.600 168.376, 82.985 164.584, 82.356 164.330 C 81.726 164.075, 81.051 164.347, 80.856 164.933" stroke="none" fill="#fbfbfb" fill-rule="evenodd"/></svg>